<svg id="visual" viewBox="0 0 900 900" width="900" height="900" xmlns="http://www.w3.org/2000/svg" xmlns:xlink="http://www.w3.org/1999/xlink" version="1.1"><rect x="0" y="0" width="900" height="900" fill="#715F6F"></rect><path d="M0 440L75 427L150 536L225 555L300 407L375 642L450 549L525 528L600 493L675 393L750 435L825 543L900 399L900 901L825 901L750 901L675 901L600 901L525 901L450 901L375 901L300 901L225 901L150 901L75 901L0 901Z" fill="#efead8"></path><path d="M0 571L75 482L150 450L225 557L300 551L375 491L450 471L525 671L600 477L675 599L750 615L825 671L900 506L900 901L825 901L750 901L675 901L600 901L525 901L450 901L375 901L300 901L225 901L150 901L75 901L0 901Z" fill="#dbd9c5"></path><path d="M0 638L75 557L150 552L225 517L300 708L375 656L450 716L525 673L600 609L675 709L750 693L825 704L900 544L900 901L825 901L750 901L675 901L600 901L525 901L450 901L375 901L300 901L225 901L150 901L75 901L0 901Z" fill="#c5c9b2"></path><path d="M0 624L75 735L150 638L225 673L300 723L375 758L450 649L525 652L600 605L675 737L750 681L825 610L900 711L900 901L825 901L750 901L675 901L600 901L525 901L450 901L375 901L300 901L225 901L150 901L75 901L0 901Z" fill="#b0b9a1"></path><path d="M0 652L75 780L150 793L225 652L300 782L375 744L450 758L525 681L600 780L675 713L750 649L825 652L900 652L900 901L825 901L750 901L675 901L600 901L525 901L450 901L375 901L300 901L225 901L150 901L75 901L0 901Z" fill="#9aa991"></path><path d="M0 794L75 807L150 727L225 763L300 784L375 752L450 707L525 742L600 757L675 731L750 788L825 784L900 739L900 901L825 901L750 901L675 901L600 901L525 901L450 901L375 901L300 901L225 901L150 901L75 901L0 901Z" fill="#849a82"></path><path d="M0 816L75 795L150 819L225 842L300 863L375 777L450 855L525 807L600 838L675 852L750 783L825 786L900 859L900 901L825 901L750 901L675 901L600 901L525 901L450 901L375 901L300 901L225 901L150 901L75 901L0 901Z" fill="#6d8b74"></path></svg>